<?xml version="1.0" standalone="no"?>
<!DOCTYPE svg PUBLIC "-//W3C//DTD SVG 20010904//EN"
 "http://www.w3.org/TR/2001/REC-SVG-20010904/DTD/svg10.dtd">
<svg version="1.0" xmlns="http://www.w3.org/2000/svg"
 width="200.000000pt" height="71.000000pt" viewBox="0 0 200.000000 71.000000"
 preserveAspectRatio="xMidYMid meet">
<metadata>
Created by potrace 1.10, written by Peter Selinger 2001-2011
</metadata>
<g transform="translate(0.000000,71.000000) scale(0.100000,-0.100000)"
fill="#ffffff" stroke="none">
<path d="M1404 562 c-1 -124 -61 -277 -127 -326 -21 -15 -30 -17 -39 -8 -9 9
-8 20 5 48 10 19 15 40 12 45 -12 18 -42 9 -53 -16 -28 -61 0 -105 65 -105 74
0 160 136 193 305 6 33 13 67 16 76 3 12 -5 20 -27 28 -18 6 -35 11 -38 11 -3
0 -6 -26 -7 -58z"/>
<path d="M180 571 c-30 -60 -57 -138 -75 -214 -13 -56 -13 -72 -3 -94 21 -44
35 -38 42 18 9 68 52 204 82 258 13 24 23 45 22 46 -2 1 -13 7 -25 14 -20 10
-24 8 -43 -28z"/>
<path d="M1096 574 c-8 -20 -8 -69 0 -77 3 -3 19 9 35 26 l28 32 -20 18 c-26
21 -35 21 -43 1z"/>
<path d="M851 450 c-12 -28 -29 -79 -39 -115 -15 -58 -15 -67 -2 -75 23 -15
25 -13 38 35 7 25 27 62 46 82 l34 38 19 -24 c11 -13 25 -21 30 -18 14 9 15
107 1 107 -6 0 -28 -20 -50 -45 -47 -53 -60 -52 -29 1 12 20 21 38 19 39 -2 1
-13 7 -24 13 -20 11 -24 7 -43 -38z"/>
<path d="M253 423 c-38 -83 -45 -121 -30 -150 12 -21 15 -18 72 58 75 102 107
123 65 43 -32 -61 -37 -95 -17 -112 10 -9 23 2 55 47 23 32 56 71 73 87 l31
29 -21 -42 c-23 -47 -27 -103 -9 -121 17 -17 43 -15 59 5 12 15 12 16 -4 10
-31 -11 -30 17 3 94 32 77 33 99 1 99 -19 0 -131 -112 -131 -132 0 -6 -3 -9
-6 -5 -4 3 8 31 25 63 18 31 31 57 29 59 -2 1 -13 6 -25 9 -25 8 -78 -34 -125
-98 -40 -55 -35 -22 7 44 31 50 33 56 18 68 -29 21 -39 14 -70 -55z"/>
<path d="M665 471 c-63 -38 -107 -168 -69 -205 20 -21 45 -8 83 44 l28 40 -5
-45 c-4 -42 -3 -45 20 -45 22 0 24 4 20 30 -2 17 5 57 17 90 21 56 21 80 2 80
-5 0 -27 -30 -49 -67 -22 -38 -52 -79 -66 -92 l-26 -24 0 22 c0 44 66 141 97
141 18 0 16 14 -5 33 -16 15 -20 15 -47 -2z"/>
<path d="M1530 464 c-65 -55 -90 -154 -50 -194 24 -24 41 -25 79 -5 63 32 102
110 87 170 -4 14 -13 25 -22 25 -8 0 -17 7 -20 15 -9 23 -39 18 -74 -11z m79
-89 c-12 -47 -59 -105 -84 -105 -43 0 -14 101 43 151 30 26 36 29 44 15 5 -9
4 -34 -3 -61z"/>
<path d="M1737 472 c-26 -29 -67 -125 -67 -158 0 -65 58 -70 99 -9 38 56 36
33 -3 -48 -50 -105 -120 -158 -168 -128 -12 7 -18 8 -18 1 0 -6 16 -18 36 -26
48 -20 91 -5 139 47 40 45 60 84 109 219 34 93 34 110 1 110 -5 0 -26 -30 -45
-65 -40 -76 -88 -138 -100 -130 -12 7 25 111 55 156 13 20 21 40 18 43 -12 12
-40 6 -56 -12z"/>
<path d="M1042 445 c-27 -34 -49 -150 -32 -170 18 -22 30 -18 30 8 0 12 15 52
33 90 l33 67 -22 15 c-21 14 -24 13 -42 -10z"/>
</g>
</svg>
